# xmcd CD database file
#
# Track frame offsets:
#	150
#	2112
#	16950
#	34092
#	52425
#	77472
#	88740
#	109372
#	141185
#	161587
#	175197
#
# Disc length: 2824 seconds
#
# Revision: 0
# Processed by: cddbd v1.5.2PL0 Copyright (c) Steve Scherf et al.
# Submitted via: CDex 1.70beta2
#
DISCID=8c0b060b
DTITLE=DORSAL ATLANTICA - MUSICAL GUIDE FROM STELLIUM (1992 ALBUM)
DYEAR=1992
DGENRE=Thrash Metal
TTITLE0=INTRO
TTITLE1=RAZOR'S EDGE
TTITLE2=RECYCLE YOURSELF
TTITLE3=THE HIDDEN AND UNEXPECTED
TTITLE4=KALI YUGA (FROM VISHNU PURANA)
TTITLE5=SEVEN RACES
TTITLE6=ROCK IS DEAD
TTITLE7=WARRIOR
TTITLE8=MY GENERATION
TTITLE9=PRISON CELL STAGE (BONUS TRACK)
TTITLE10=THY WILL BE DONE (BONUS TRACK)
EXTD=YEAR: 1992
EXTT0=
EXTT1=
EXTT2=
EXTT3=
EXTT4=
EXTT5=
EXTT6=
EXTT7=
EXTT8=
EXTT9=
EXTT10=
PLAYORDER=
